<?xml version="1.0" encoding="UTF-8"?>
<!-- Created with Inkscape (http://www.inkscape.org/) -->
<svg width="3192.3" height="583.33" version="1.1" viewBox="0 0 3192.3 583.33" xmlns="http://www.w3.org/2000/svg">
 <g transform="translate(-2486.7 -207.62)">
  <g transform="matrix(33.333 0 0 33.333 3760.6 99.288)" fill="none">
   <path d="m9 4h-5l-4e-5 5m16-1e-5v-5l-5-3e-5m0 16h5v-5m-16 0v5h5" stroke="#000" stroke-linecap="round" stroke-linejoin="round" stroke-width="1.5"/>
  </g>
  <g transform="matrix(15.385 0 0 15.385 2455.9 -223.79)">
   <path d="m50 48.5c0 0.8-0.7 1.5-1.5 1.5h-45c-0.8 0-1.5-0.7-1.5-1.5v-3c0-0.8 0.7-1.5 1.5-1.5h45c0.8 0 1.5 0.7 1.5 1.5z"/>
  </g>
  <path d="m5175.5 207.79c-6.7811 0-13.568 2.5837-18.735 7.7635l-52.999 52.999c-10.361 10.361-10.361 27.137 0 37.472l193.26 193.26-193.26 193.26c-10.361 10.361-10.361 27.137 0 37.472l52.999 52.999c10.361 10.361 27.135 10.361 37.47 0l193.26-193.26 193.26 193.26c10.335 10.361 27.135 10.361 37.47 0l52.999-52.999c10.361-10.361 10.361-27.137 0-37.472l-193.26-193.26 193.26-193.26c10.361-10.335 10.361-27.137 0-37.472l-52.999-52.999c-10.361-10.361-27.135-10.361-37.47 0l-193.26 193.26-193.26-193.26c-5.1806-5.1806-11.954-7.7635-18.735-7.7635z" stroke-width="26.499"/>
 </g>
</svg>
